<?xml version="1.0" encoding="UTF-8"?>
<svg xmlns="http://www.w3.org/2000/svg" version="1.1" viewBox="0 0 124.5 234">
  <g>
    <g>
      <path fill="white" d="M.2,118.7c4.4-3.2,6.7-7.1,6.7-15.1V34.9C28,27,50.6,14.7,72.1,0c11.1,7.9,26.2,16.3,40.1,19.4.8-2.4,1.6-6.7,1.6-12.3V1.2c3.6,1.2,10.3,3.2,10.3,3.2-1.2,47.2-30.6,84.1-45.6,102.4,11.5,6.4,34.5,20.6,42.1,23.8v1.6c-4.4,2.4-6.7,6.3-6.7,14.3v57.5c-20.2,6-42.9,17.9-59.5,30.2-12.7-9.9-25.8-20.6-40.5-29.4-2.4,5.6-2,11.1-3.6,17.9-2.4-2-7.1-4-8.7-6,2.4-16.7,11.9-40.5,38.5-74.6L.2,120.3v-1.6ZM71.3,208l1.6-.8v-63.1c-3.6-2-10.7-6-14.7-7.5-9.5,9.5-22.6,28.2-28.6,40.1,16.3,7.9,33.7,23.4,41.7,31.4ZM47.4,28.2v78.6l12.3,6.4c11.9-13.1,36.1-45.6,43.7-63.1-21-1.2-42.5-12.3-55.2-22.2l-.8.4Z"/>
    </g>
  </g>
</svg>