<svg fill="white" version="1.1" xmlns="http://www.w3.org/2000/svg" xmlns:xlink="http://www.w3.org/1999/xlink" x="0px" y="0px"
	 viewBox="0 0 313.2 358.8" xml:space="preserve">
<path d="M134.2,242.3c0,24.6-4.3,45.6-12.9,63c-8.2,16.5-19.9,29.3-35.3,38.3l-1.6,0.9c-0.3,0.2-0.6,0.4-0.9,0.5
	c-16.6,9.1-36.6,13.7-60.1,13.7c-0.9,0-22.5,0-23.4,0l20.7-47.9c0.9,0,1.8,0.1,2.7,0.1c19.4,0,34.4-6,45-18.1
	c10.3-11.6,15.6-27.7,16-48.4V0h21.7h28.1h61.1c20.5,0,38.5,4.2,54.1,12.7c15.5,8.5,27.6,20.5,36.1,36c8.5,15.5,12.8,33.5,12.8,53.8
	c0,20.3-4.3,38.3-12.9,53.8c-8.6,15.5-20.7,27.5-36.3,36c-5.6,3.1-11.5,5.5-17.8,7.5l81.9,155.3h-59.1l-75.8-150.1h0
	c-8-15.8-16-31.6-24-47.4h42.9c9.4,0,17.8-2.3,25.1-6.8c7.3-4.6,13-11,17-19.4c1.9-4,3.4-10.9,4.4-16.9c1.3-8,1.3-16.1,0-24.1
	c-1-6-2.5-12.8-4.4-16.9c-4-8.4-9.6-14.9-16.8-19.4c-7.2-4.6-15.7-6.8-25.3-6.8h-63"/>
</svg>
