<?xml version="1.0" encoding="UTF-8"?>
<svg id="Ebene_1" data-name="Ebene 1" xmlns="http://www.w3.org/2000/svg" width="20.26" height="18.04" viewBox="0 0 20.26 18.04">
  <defs>
    <style>
      .cls-1 {
        fill: #fff;
        stroke-width: 0px;
      }
    </style>
  </defs>
  <circle class="cls-1" cx="10.14" cy="9.03" r="1.8"/>
  <g>
    <path class="cls-1" d="M10.14,13.16C4.46,13.16.02,11.34.02,9.03s4.45-4.14,10.12-4.14,10.12,1.82,10.12,4.14-4.45,4.13-10.12,4.13ZM10.14,5.77C4.69,5.77.9,7.49.9,9.03s3.79,3.26,9.24,3.26,9.24-1.72,9.24-3.26-3.79-3.26-9.24-3.26Z"/>
    <path class="cls-1" d="M14.2,18.04c-2.11,0-5.23-2.76-7.65-6.95-1.32-2.28-2.22-4.63-2.54-6.62-.34-2.13.04-3.62,1.06-4.21,2.01-1.16,5.8,1.78,8.64,6.69,1.32,2.28,2.22,4.64,2.54,6.62.34,2.13-.04,3.62-1.06,4.21-.29.17-.63.25-.99.25ZM6.1.88c-.22,0-.41.05-.58.14-.68.39-.91,1.6-.63,3.31.3,1.88,1.16,4.12,2.43,6.32,2.72,4.72,6.11,7.14,7.44,6.37.68-.39.91-1.6.63-3.31-.3-1.88-1.16-4.12-2.43-6.32h0C10.57,3.26,7.67.88,6.1.88Z"/>
    <path class="cls-1" d="M6.07,18.04c-.36,0-.7-.08-.99-.25-2.01-1.16-1.36-5.92,1.48-10.83,1.32-2.28,2.9-4.24,4.46-5.51C12.69.09,14.17-.33,15.2.26c1.02.59,1.4,2.09,1.06,4.21-.32,1.98-1.22,4.34-2.54,6.62-2.42,4.19-5.54,6.95-7.65,6.95ZM14.16.88c-.67,0-1.58.43-2.59,1.25-1.48,1.2-2.99,3.07-4.26,5.26-2.72,4.72-3.13,8.86-1.8,9.63,1.33.77,4.72-1.66,7.44-6.37h0c1.27-2.19,2.13-4.44,2.43-6.32.27-1.71.04-2.92-.63-3.31-.17-.1-.37-.15-.59-.15Z"/>
  </g>
</svg>