<?xml version="1.0" encoding="UTF-8"?>
<svg id="Ebene_1" data-name="Ebene 1" xmlns="http://www.w3.org/2000/svg" width="108.07" height="18.04" viewBox="0 0 108.07 18.04">
  <defs>
    <style>
      .cls-1, .cls-2 {
        fill: #fff;
        stroke-width: 0px;
      }

      .cls-2 {
        fill-rule: evenodd;
      }
    </style>
  </defs>
  <path class="cls-2" d="M28.89.04l-9.21,18h-8.65l3.85-7.46h-.17C11.54,14.71,6.8,17.42.04,18.04v-7.36s4.32-.26,6.87-2.93H.04V.04h7.72v6.35h.17S11.08.04,11.08.04h5.84v6.31h.17S20.36.04,20.36.04h8.54Z"/>
  <path class="cls-1" d="M79.1,16.05h2.48V1.79h-2.48v14.26Z"/>
  <path class="cls-2" d="M65.4,15.91c.54.22,1.09.34,1.65.34.92,0,1.75-.22,2.48-.67.73-.45,1.29-1.07,1.69-1.86.4-.79.6-1.7.6-2.7s-.21-1.91-.62-2.7c-.41-.79-.99-1.41-1.72-1.85-.73-.44-1.57-.66-2.5-.66-.59,0-1.17.12-1.71.35-.55.23-1,.56-1.37.98-.03.03-.06.07-.08.1V1.8h-2.49v14.25h2.48v-1.33c.06.08.13.16.2.23.39.41.86.73,1.4.96ZM67.95,13.61c-.41.25-.87.37-1.39.37s-.99-.13-1.42-.38c-.43-.26-.77-.62-1.03-1.07-.25-.45-.37-.96-.37-1.53,0-.57.12-1.08.36-1.53.25-.46.6-.81,1.03-1.06.43-.25.91-.38,1.43-.37.52,0,.99.12,1.39.36.41.24.73.59.95,1.05.22.45.34.96.34,1.55s-.11,1.1-.34,1.55c-.22.45-.53.8-.95,1.06Z"/>
  <path class="cls-1" d="M32.49,2.66h2.84l2.54,9.28,2.7-9.28h2.37l2.93,9.09,2.44-9.09h2.6l-3.84,13.4h-2.45l-2.98-8.88-2.74,8.88h-2.48l-3.94-13.4Z"/>
  <path class="cls-2" d="M55.11,16.29c-.99,0-1.88-.21-2.68-.66-.79-.45-1.41-1.07-1.87-1.87-.45-.79-.67-1.7-.67-2.72s.23-1.88.69-2.69c.46-.8,1.09-1.43,1.88-1.88.79-.45,1.67-.67,2.64-.67,1.09,0,2.05.24,2.87.73.83.49,1.44,1.17,1.85,2.07.41.89.56,1.9.45,3.05h-7.8c.02.46.14.87.34,1.25.23.41.55.73.96.96.41.23.87.35,1.38.35.39,0,.75-.07,1.08-.2.33-.13.62-.31.85-.54.24-.22.4-.48.5-.76h2.6c-.16.7-.47,1.32-.95,1.87-.47.54-1.07.96-1.78,1.27-.72.3-1.5.45-2.35.45ZM52.82,9.16c-.15.25-.25.53-.3.82h5.17c-.04-.37-.15-.71-.34-1.01-.22-.36-.52-.63-.89-.83-.38-.2-.8-.3-1.27-.3-.5,0-.96.12-1.37.35-.41.23-.74.56-.98.97Z"/>
  <path class="cls-1" d="M73.65,6.02c0-.81.19-1.54.56-2.17.37-.64.89-1.13,1.56-1.48.67-.36,1.46-.54,2.36-.56v2.21c-.42,0-.78.09-1.07.26-.29.16-.52.4-.67.72-.15.29-.22.63-.24,1.01h1.93v2.1h-1.93v7.93h-2.48v-7.93h-1.6v-2.1h1.6Z"/>
  <path class="cls-2" d="M87.9,16.27c-1.01,0-1.92-.22-2.72-.66-.79-.45-1.42-1.07-1.88-1.86-.45-.79-.67-1.7-.67-2.7s.22-1.92.67-2.71c.46-.8,1.08-1.42,1.88-1.87.8-.44,1.71-.66,2.72-.66s1.93.22,2.73.66c.81.44,1.44,1.06,1.88,1.86.45.79.68,1.7.68,2.72,0,1.01-.23,1.91-.68,2.7-.44.79-1.07,1.41-1.88,1.86-.81.44-1.72.66-2.74.66ZM87.9,13.99c.53,0,1.01-.12,1.42-.36.41-.25.73-.59.96-1.04.22-.45.34-.96.34-1.54s-.11-1.1-.34-1.55c-.22-.45-.54-.79-.96-1.04-.41-.25-.89-.37-1.42-.37s-1,.12-1.41.37c-.41.24-.72.59-.95,1.04-.22.45-.33.96-.33,1.55,0,.58.11,1.09.34,1.54.23.44.55.79.95,1.04.41.24.87.36,1.4.36Z"/>
  <path class="cls-1" d="M95.89,6.02h-2.77l2.99,10.03h2.42l1.97-6.41,2.13,6.41h2.39l3-10.03h-2.5l-1.7,6.24-1.88-6.24h-2.42l-1.87,6.38-1.75-6.38Z"/>
</svg>