<?xml version="1.0" encoding="UTF-8"?>
<svg id="Ebene_1" data-name="Ebene 1" xmlns="http://www.w3.org/2000/svg" width="18.03" height="17.98" viewBox="0 0 18.03 17.98">
  <defs>
    <style>
      .cls-1 {
        fill: #fff;
        stroke-width: 0px;
      }
    </style>
  </defs>
  <path class="cls-1" d="M8.44.01s-.16.02-.27.02C5.61.27,3.22,1.64,1.71,3.76.87,4.94.33,6.27.12,7.69c-.07.49-.08.64-.08,1.31s0,.82.08,1.31c.49,3.37,2.89,6.21,6.15,7.26.58.19,1.2.32,1.9.39.27.03,1.45.03,1.72,0,1.21-.13,2.23-.43,3.24-.95.15-.08.18-.1.16-.12-.01-.01-.67-.89-1.46-1.96l-1.44-1.94-1.8-2.67c-.99-1.47-1.81-2.66-1.81-2.66,0,0-.01,1.18-.02,2.63,0,2.53,0,2.63-.04,2.69-.05.09-.08.12-.15.16-.06.03-.11.03-.37.03h-.3l-.08-.05c-.05-.03-.09-.08-.12-.13l-.04-.08v-3.52s0-3.52,0-3.52l.05-.07s.09-.08.13-.11c.07-.04.1-.04.4-.04.36,0,.42.01.51.12.03.03,1,1.5,2.17,3.27s2.76,4.18,3.55,5.37l1.42,2.16.07-.05c.64-.41,1.31-1,1.85-1.62,1.14-1.31,1.87-2.9,2.12-4.59.07-.49.08-.64.08-1.31s0-.82-.08-1.31c-.49-3.37-2.89-6.21-6.15-7.26-.57-.19-1.19-.31-1.87-.39-.17-.02-1.33-.04-1.48-.02h0ZM12.12,5.45c.08.04.15.12.18.21.01.05.02,1.02.01,3.22v3.16s-.56-.85-.56-.85l-.56-.85v-2.3c0-1.48,0-2.32.02-2.36.03-.1.09-.18.17-.22.07-.04.1-.04.37-.04.26,0,.31,0,.36.04h0Z"/>
</svg>