<?xml version="1.0" encoding="UTF-8"?>
<svg xmlns="http://www.w3.org/2000/svg" version="1.1" viewBox="0 0 205.4 174.8">
  <defs>
    <style>
      .cls-1 {
        fill: #fff;
      }
    </style>
  </defs>
  <!-- Generator: Adobe Illustrator 28.7.0, SVG Export Plug-In . SVG Version: 1.2.0 Build 136)  -->
  <g>
    <g id="Layer_1">
      <path class="cls-1" d="M114.9,155.3h75.4c2.4,0,4.7-.8,6.8-2,2.1-1.2,4.2-2.7,5.4-4.8,1.2-2.1,2-4.4,2-6.8,0-2.4-.8-4.7-2-6.8l-50.9-87.6c-1.2-2.1-2.7-3.6-4.8-4.8-2.1-1.2-5.1-2-7.5-2s-4.7.8-6.8,2c-2.1,1.2-3.6,2.7-4.8,4.8l-12.9,22.4-25.8-43.5c-1.2-2.1-2.7-4.2-4.8-5.4-2.1-1.2-4.4-1.4-6.8-1.4s-4.7.2-6.8,1.4c-2.1,1.2-4.2,3.4-5.4,5.4L2.2,135c-1.2,2.1-1.4,4.4-1.4,6.8,0,2.4.2,4.7,1.4,6.8,1.2,2.1,3.4,3.6,5.4,4.8,2.1,1.2,4.4,2,6.8,2h47.5c18.8,0,32.6-8.5,42.1-24.5l23.1-40.1,12.2-21.1,37.4,63.8h-49.6l-12.2,21.7ZM61.3,133.6H28l49.6-85.6,25.1,42.8-16.6,29c-6.3,10.4-13.6,13.8-24.8,13.8Z"/>
    </g>
  </g>
</svg>