<?xml version="1.0" encoding="utf-8"?>
<!-- Generator: Adobe Illustrator 28.1.0, SVG Export Plug-In . SVG Version: 6.00 Build 0)  -->
<svg version="1.1" id="Ebene_1" xmlns="http://www.w3.org/2000/svg" xmlns:xlink="http://www.w3.org/1999/xlink" x="0px" y="0px"
	 viewBox="0 0 234 234" style="enable-background:new 0 0 234 234;" xml:space="preserve">
<style type="text/css">
	.st0{fill:#FFFFFF;}
</style>
<path class="st0" d="M145.8,102.3c-3.9,0-7.8,0.8-11.3,2.6c-3.4,1.7-6.3,4.2-8.5,7.4s-3.3,7.5-3.3,12.7c-0.1,3.5,0.5,7,1.7,10.3
	c1,2.7,2.5,5.1,4.5,7.1c1.9,1.8,4.2,3.2,6.8,4c2.7,0.9,5.5,1.3,8.3,1.3c1.5,0,2.9-0.1,4.2-0.2c1.3,0.1,2.5-0.1,3.6-0.5v-44
	c-0.9-0.2-1.8-0.4-2.7-0.5C148,102.4,146.9,102.3,145.8,102.3L145.8,102.3z"/>
<path class="st0" d="M211.1,0H22.9C10.2,0,0,10.2,0,22.9v188.3C0,223.8,10.2,234,22.9,234h188.3c12.6,0,22.9-10.2,22.9-22.9V22.9
	C234,10.2,223.8,0,211.1,0z M135.7,129.8h-29.4v83.6H83.1v-83.6H53.9v-18.8h81.8V129.8z M211.6,198.6c-2.2,3.9-5.1,7-8.8,9.4
	c-3.7,2.4-8,4.1-13,5.2c-4.9,1-10.1,1.6-15.6,1.6c-5.6,0-11-0.5-16.1-1.4c-5.1-1-9.5-2.4-13.2-4.3v-22.9h0c4.1,3.5,8.7,6.1,13.5,7.8
	c4.9,1.7,9.8,2.6,14.7,2.6c2.9,0,5.4-0.3,7.6-0.8c2.2-0.5,4-1.3,5.4-2.2c1.5-0.9,2.5-2,3.3-3.3c0.7-1.3,1.1-2.6,1.1-4.1
	c0-2-0.6-3.8-1.7-5.4c-1.1-1.6-2.7-3-4.7-4.4c-2-1.3-4.3-2.6-7-3.9c-2.7-1.2-5.7-2.5-8.8-3.8c-8-3.3-14-7.4-17.9-12.2
	c-3.9-4.8-5.9-10.6-5.9-17.4c0-5.3,1.1-9.9,3.2-13.8c2.1-3.8,5.1-7,8.8-9.5c3.7-2.5,8-4.3,12.8-5.5c4.9-1.2,10-1.8,15.4-1.8
	c5.3,0,10.1,0.3,14.2,1c4.1,0.6,7.9,1.6,11.4,3v21.4c-1.7-1.2-3.6-2.2-5.6-3.1c-2-0.9-4.1-1.7-6.3-2.3c-2.1-0.6-4.3-1-6.4-1.3
	c-2.1-0.3-4.1-0.4-6-0.4c-2.6,0-5,0.2-7.2,0.8c-2.1,0.5-4,1.2-5.4,2.1c-1.5,0.9-2.6,2-3.4,3.3c-0.8,1.3-1.2,2.7-1.2,4.3
	c0,1.7,0.5,3.3,1.4,4.6c0.9,1.4,2.2,2.6,3.9,3.9c1.7,1.2,3.7,2.4,6.1,3.6c2.4,1.2,5.1,2.4,8.1,3.6c4.1,1.7,7.8,3.5,11.1,5.5
	c3.3,1.9,6.1,4.1,8.4,6.5c2.3,2.4,4.1,5.2,5.4,8.3s1.9,6.8,1.9,10.9C214.8,189.9,213.7,194.7,211.6,198.6z"/>
</svg>
