<?xml version="1.0" encoding="UTF-8"?>
<svg xmlns="http://www.w3.org/2000/svg" version="1.1" viewBox="0 0 205.4 174.8">
  <defs>
    <style>
      .cls-1 {
        fill: #fff;
      }

      .cls-2 {
        fill: #ccc;
      }
    </style>
  </defs>
  <!-- Generator: Adobe Illustrator 28.7.0, SVG Export Plug-In . SVG Version: 1.2.0 Build 136)  -->
  <g>
    <g id="Layer_1">
      <path class="cls-1" d="M80.5,51.7c-3.7-1.5-7.7-2.1-11.8-2-2.6,0-4.9,0-6.8,0-2,0-3.4,0-4.1,0v33.6c1.4,0,2.7.2,3.9.2h5.3c3.9,0,7.8-.6,11.5-1.8,3.2-.9,6-2.8,8.2-5.3,2.1-2.5,3.1-5.9,3.1-10.3,0-3.1-.7-6.2-2.3-8.9-1.7-2.6-4.1-4.6-7-5.7h0Z"/>
      <g>
        <path class="cls-1" d="M125.3.7l-23.4,40.1L78.6.7H.9l101.1,173.7L203,.7h-77.7Z"/>
        <path class="cls-2" d="M125.3.7l-23.4,40.1L78.6.7h-37.3l60.6,104.2L162.6.7h-37.3Z"/>
      </g>
    </g>
  </g>
</svg>